<svg version="1.1" xmlns="http://www.w3.org/2000/svg" viewBox="0 0 626.2799036624347 381.54262141991785" width="626.2799036624347" height="381.54262141991785">
  <!-- svg-source:excalidraw -->
  
  <defs>
    <style class="style-fonts">
      @font-face {
        font-family: "Virgil";
        src: url("https://excalidraw.com/Virgil.woff2");
      }
      @font-face {
        font-family: "Cascadia";
        src: url("https://excalidraw.com/Cascadia.woff2");
      }
    </style>
    
  </defs>
  <g stroke-linecap="round" transform="translate(82.79147721012487 90) rotate(0 50 30)"><path d="M0 0 C29.78 0, 59.55 0, 100 0 M0 0 C25.41 0, 50.82 0, 100 0 M100 0 C100 22.02, 100 44.04, 100 60 M100 0 C100 20.54, 100 41.09, 100 60 M100 60 C78.98 60, 57.96 60, 0 60 M100 60 C74.45 60, 48.91 60, 0 60 M0 60 C0 47.99, 0 35.97, 0 0 M0 60 C0 45.9, 0 31.81, 0 0" stroke="#1e1e1e" stroke-width="1" fill="none"></path></g><g transform="translate(104.61647797306432 98.39999999999964) rotate(0 28.174999237060547 21.600000000000364)"><text x="28.174999237060547" y="0" font-family="Cascadia, Segoe UI Emoji" font-size="36px" fill="#1e1e1e" text-anchor="middle" style="white-space: pre;" direction="ltr" dominant-baseline="text-before-edge">Dip</text></g><g stroke-linecap="round"><g transform="translate(142.79147721012487 90) rotate(0 30 -30)"><path d="M0 0 C20.67 -20.67, 41.35 -41.35, 60 -60 M0 0 C19.34 -19.34, 38.67 -38.67, 60 -60" stroke="#1e1e1e" stroke-width="1" fill="none"></path></g></g><mask></mask><g stroke-linecap="round"><g transform="translate(202.79147721012487 30) rotate(0 30 0)"><path d="M0 0 C12.19 0, 24.38 0, 60 0 M0 0 C23.32 0, 46.65 0, 60 0" stroke="#1e1e1e" stroke-width="1" fill="none"></path></g></g><mask></mask><g transform="translate(202.79147721012487 12.399999999999636) rotate(0 26.58333396911621 9.600000000000364)"><text x="0" y="0" font-family="Cascadia, Segoe UI Emoji" font-size="16px" fill="#1e1e1e" text-anchor="start" style="white-space: pre;" direction="ltr" dominant-baseline="text-before-edge">Codice</text></g><g stroke-linecap="round"><g transform="translate(142.79147721012487 90) rotate(0 -20 -30)"><path d="M0 0 C-14.77 -22.15, -29.53 -44.3, -40 -60 M0 0 C-9.97 -14.95, -19.94 -29.91, -40 -60" stroke="#1e1e1e" stroke-width="1" fill="none"></path></g></g><mask></mask><g transform="translate(82.79147721012487 10) rotate(0 22.41666603088379 9.600000000000364)"><text x="0" y="0" font-family="Cascadia, Segoe UI Emoji" font-size="16px" fill="#1e1e1e" text-anchor="start" style="white-space: pre;" direction="ltr" dominant-baseline="text-before-edge">Nome</text></g><g stroke-linecap="round" transform="translate(382.79147721012487 90) rotate(0 40 30)"><path d="M0 0 C19.48 0, 38.95 0, 80 0 M0 0 C31.38 0, 62.77 0, 80 0 M80 0 C80 23.7, 80 47.4, 80 60 M80 0 C80 18.43, 80 36.87, 80 60 M80 60 C60.34 60, 40.69 60, 0 60 M80 60 C50.86 60, 21.72 60, 0 60 M0 60 C0 43.48, 0 26.96, 0 0 M0 60 C0 44.38, 0 28.77, 0 0" stroke="#1e1e1e" stroke-width="1" fill="none"></path></g><g transform="translate(398.3914775915946 103.20000000000073) rotate(0 24.399999618530273 16.800000000000182)"><text x="24.399999618530273" y="0" font-family="Cascadia, Segoe UI Emoji" font-size="28px" fill="#1e1e1e" text-anchor="middle" style="white-space: pre;" direction="ltr" dominant-baseline="text-before-edge">Imp</text></g><g stroke-linecap="round"><g transform="translate(422.79147721012487 90) rotate(0 10 -20)"><path d="M0 0 C5.47 -10.94, 10.94 -21.89, 20 -40 M0 0 C7.37 -14.73, 14.73 -29.46, 20 -40" stroke="#1e1e1e" stroke-width="1" fill="none"></path></g></g><mask></mask><g stroke-linecap="round"><g transform="translate(442.79147721012487 50) rotate(0 30 0)"><path d="M0 0 C18.46 0, 36.93 0, 60 0 M0 0 C12.53 0, 25.06 0, 60 0" stroke="#1e1e1e" stroke-width="1" fill="none"></path></g></g><mask></mask><g transform="translate(442.79147721012487 30) rotate(0 25.233333587646484 9.600000000000364)"><text x="0" y="0" font-family="Cascadia, Segoe UI Emoji" font-size="16px" fill="#1e1e1e" text-anchor="start" style="white-space: pre;" direction="ltr" dominant-baseline="text-before-edge">codice</text></g><g stroke-linecap="round"><g transform="translate(422.79147721012487 90) rotate(0 -10 -20)"><path d="M0 0 C-4.38 -8.75, -8.75 -17.5, -20 -40 M0 0 C-5.04 -10.07, -10.07 -20.14, -20 -40" stroke="#1e1e1e" stroke-width="1" fill="none"></path></g></g><mask></mask><g transform="translate(362.79147721012487 30) rotate(0 21.075000762939453 9.600000000000364)"><text x="0" y="0" font-family="Cascadia, Segoe UI Emoji" font-size="16px" fill="#1e1e1e" text-anchor="start" style="white-space: pre;" direction="ltr" dominant-baseline="text-before-edge">nome</text></g><g stroke-linecap="round"><g transform="translate(462.79147721012487 130) rotate(0 10 -10)"><path d="M0 0 C5.41 -5.41, 10.81 -10.81, 20 -20 M0 0 C4.8 -4.8, 9.6 -9.6, 20 -20" stroke="#1e1e1e" stroke-width="1" fill="none"></path></g></g><mask></mask><g transform="translate(482.79147721012487 90) rotate(0 12.074999809265137 9.600000000000364)"><text x="0" y="0" font-family="Cascadia, Segoe UI Emoji" font-size="16px" fill="#1e1e1e" text-anchor="start" style="white-space: pre;" direction="ltr" dominant-baseline="text-before-edge">età</text></g><g stroke-linecap="round" transform="translate(242.79147721012487 90) rotate(0 40 30)"><path d="M41 0 C54.69 10.88, 68.38 21.76, 80 31 M41 0 C53.3 9.78, 65.6 19.56, 80 31 M80 31 C69.26 38.99, 58.52 46.97, 41 60 M80 31 C70.8 37.84, 61.59 44.69, 41 60 M41 60 C25.51 49.05, 10.03 38.09, 0 31 M41 60 C26.75 49.92, 12.51 39.85, 0 31 M0 31 C10.92 22.74, 21.84 14.49, 41 0 M0 31 C14.02 20.4, 28.04 9.8, 41 0" stroke="#1e1e1e" stroke-width="1" fill="none"></path></g><g transform="translate(272.5164775915946 110.39999999999964) rotate(0 10.274999618530273 9.600000000000364)"><text x="10.274999618530273" y="0" font-family="Cascadia, Segoe UI Emoji" font-size="16px" fill="#1e1e1e" text-anchor="middle" style="white-space: pre;" direction="ltr" dominant-baseline="text-before-edge">aff</text></g><g stroke-linecap="round"><g transform="translate(241.54558963830914 119.80062718197587) rotate(0 -28.44263635742027 0)"><path d="M0 0 C-13.36 0, -26.72 0, -56.89 0 M0 0 C-13.68 0, -27.37 0, -56.89 0" stroke="#1e1e1e" stroke-width="1" fill="none"></path></g></g><mask></mask><g transform="translate(187.64214013744095 98.01634604763785) rotate(0 10.300000190734863 9.600000000000364)"><text x="0" y="0" font-family="Cascadia, Segoe UI Emoji" font-size="16px" fill="#1e1e1e" text-anchor="start" style="white-space: pre;" direction="ltr" dominant-baseline="text-before-edge">1,n</text></g><g stroke-linecap="round"><g transform="translate(379.75525043386006 121.84992913335009) rotate(0 -28.44263635742027 0)"><path d="M0 0 C-12.47 0, -24.94 0, -56.89 0 M0 0 C-19.52 0, -39.04 0, -56.89 0" stroke="#1e1e1e" stroke-width="1" fill="none"></path></g></g><mask></mask><g transform="translate(357.21380791531647 102.02577343540906) rotate(0 8.633333206176758 9.600000000000364)"><text x="0" y="0" font-family="Cascadia, Segoe UI Emoji" font-size="16px" fill="#1e1e1e" text-anchor="start" style="white-space: pre;" direction="ltr" dominant-baseline="text-before-edge">1,1</text></g><g stroke-linecap="round" transform="translate(244.485777792901 182.30173981263215) rotate(0 40.67260280520031 31.116991302773386)"><path d="M41 0 C51.12 8.02, 61.23 16.05, 81.35 32 M41 0 C50.87 7.83, 60.74 15.66, 81.35 32 M81.35 32 C73.24 38.08, 65.13 44.15, 41 62.23 M81.35 32 C65.51 43.87, 49.67 55.73, 41 62.23 M41 62.23 C27.58 52.33, 14.15 42.43, 0 32 M41 62.23 C32.16 55.72, 23.32 49.2, 0 32 M0 32 C15.42 19.97, 30.83 7.93, 41 0 M0 32 C13.7 21.31, 27.4 10.62, 41 0" stroke="#1e1e1e" stroke-width="1" fill="none"></path></g><g transform="translate(254.77643633397656 203.37308825388027) rotate(0 32.41666793823242 9.600000000000364)"><text x="0" y="0" font-family="Cascadia, Segoe UI Emoji" font-size="16px" fill="#1e1e1e" text-anchor="start" style="white-space: pre;" direction="ltr" dominant-baseline="text-before-edge">direttore</text></g><g stroke-linecap="round"><g transform="translate(142.42926997543236 213.66374679495493) rotate(0 51.76330094738296 0)"><path d="M0 0 C34.31 0, 68.62 0, 103.53 0 M0 0 C31.27 0, 62.54 0, 103.53 0" stroke="#1e1e1e" stroke-width="1" fill="none"></path></g></g><mask></mask><g stroke-linecap="round"><g transform="translate(141.93923861633357 213.66374679495493) rotate(0 0 -31.36200698232369)"><path d="M0 0 C0 -24.17, 0 -48.34, 0 -62.72 M0 0 C0 -15.97, 0 -31.93, 0 -62.72" stroke="#1e1e1e" stroke-width="1" fill="none"></path></g></g><mask></mask><g stroke-linecap="round"><g transform="translate(326.68106099658235 214.64380951315252) rotate(0 46.062947755287496 0)"><path d="M0 0 C33.66 0, 67.33 0, 92.13 0 M0 0 C23.38 0, 46.76 0, 92.13 0" stroke="#1e1e1e" stroke-width="1" fill="none"></path></g></g><mask></mask><g stroke-linecap="round"><g transform="translate(419.29698786625613 214.64380951315252) rotate(0 0 -32.83210105962007)"><path d="M0 0 C0 -25.03, 0 -50.07, 0 -65.66 M0 0 C0 -23.3, 0 -46.59, 0 -65.66" stroke="#1e1e1e" stroke-width="1" fill="none"></path></g></g><mask></mask><g transform="translate(155.1700853120019 193.57246107190258) rotate(0 8.633333206176758 9.600000000000364)"><text x="0" y="0" font-family="Cascadia, Segoe UI Emoji" font-size="16px" fill="#1e1e1e" text-anchor="start" style="white-space: pre;" direction="ltr" dominant-baseline="text-before-edge">1,1</text></g><g transform="translate(385.67205534604 193.7730882538799) rotate(0 10.050000190734863 9.600000000000364)"><text x="0" y="0" font-family="Cascadia, Segoe UI Emoji" font-size="16px" fill="#1e1e1e" text-anchor="start" style="white-space: pre;" direction="ltr" dominant-baseline="text-before-edge">0,1</text></g><g stroke-linecap="round" transform="translate(528.0742590246509 194.0624924310032) rotate(0 44.10282231889187 22.051411159445706)"><path d="M0 0 C21.74 0, 43.49 0, 88.21 0 M0 0 C29.03 0, 58.05 0, 88.21 0 M88.21 0 C88.21 16.07, 88.21 32.15, 88.21 44.1 M88.21 0 C88.21 13.22, 88.21 26.45, 88.21 44.1 M88.21 44.1 C66.72 44.1, 45.23 44.1, 0 44.1 M88.21 44.1 C67.32 44.1, 46.44 44.1, 0 44.1 M0 44.1 C0 28.43, 0 12.75, 0 0 M0 44.1 C0 26.81, 0 9.51, 0 0" stroke="#1e1e1e" stroke-width="1" fill="none"></path></g><g transform="translate(541.7951370794162 205.82324504937242) rotate(0 29.950000762939453 9.600000000000364)"><text x="0" y="0" font-family="Cascadia, Segoe UI Emoji" font-size="16px" fill="#1e1e1e" text-anchor="start" style="white-space: pre;" direction="ltr" dominant-baseline="text-before-edge">Progetti</text></g><g stroke-linecap="round"><g transform="translate(462.4100569054117 138.19891749373892) rotate(0 27.173037436082268 0)"><path d="M0 0 C21.07 0, 42.15 0, 54.35 0 M0 0 C18.48 0, 36.97 0, 54.35 0" stroke="#1e1e1e" stroke-width="1" fill="none"></path></g></g><mask></mask><g stroke-linecap="round"><g transform="translate(560.906360084271 165.64067360327135) rotate(0 0 13.47586237521682)"><path d="M0 0 C0 5.53, 0 11.07, 0 26.95 M0 0 C0 8.29, 0 16.57, 0 26.95" stroke="#1e1e1e" stroke-width="1" fill="none"></path></g></g><mask></mask><g transform="translate(565.3166423161601 172.50111263065446) rotate(0 10.300000190734863 9.600000000000364)"><text x="0" y="0" font-family="Cascadia, Segoe UI Emoji" font-size="16px" fill="#1e1e1e" text-anchor="start" style="white-space: pre;" direction="ltr" dominant-baseline="text-before-edge">1,n</text></g><g stroke-linecap="round" transform="translate(514.8434123289826 110.75716138420648) rotate(0 44.10282231889187 26.95172475043364)"><path d="M45 0 C55.32 6.45, 65.64 12.9, 88.21 27 M45 0 C56.51 7.19, 68.01 14.38, 88.21 27 M88.21 27 C72.14 37, 56.07 47.01, 45 53.9 M88.21 27 C79.29 32.55, 70.38 38.1, 45 53.9 M45 53.9 C34.35 47.54, 23.7 41.17, 0 27 M45 53.9 C34.29 47.5, 23.58 41.1, 0 27 M0 27 C11 20.4, 22 13.8, 45 0 M0 27 C15.64 17.61, 31.28 8.23, 45 0" stroke="#1e1e1e" stroke-width="1" fill="none"></path></g><g transform="translate(526.6041649473555 127.41822759356546) rotate(0 35.90833282470703 9.600000000000364)"><text x="0" y="0" font-family="Cascadia, Segoe UI Emoji" font-size="16px" fill="#1e1e1e" text-anchor="start" style="white-space: pre;" direction="ltr" dominant-baseline="text-before-edge">partecipa</text></g><g transform="translate(478.5717501060117 142.31979554850295) rotate(0 10.300000190734863 9.600000000000364)"><text x="0" y="0" font-family="Cascadia, Segoe UI Emoji" font-size="16px" fill="#1e1e1e" text-anchor="start" style="white-space: pre;" direction="ltr" dominant-baseline="text-before-edge">1,n</text></g><g stroke-linecap="round" transform="translate(42.34206970052037 273.44757260500955) rotate(0 29.646897225477915 15.926019170711697)"><path d="M0 0 C12.99 0, 25.98 0, 59.29 0 M0 0 C22.4 0, 44.8 0, 59.29 0 M59.29 0 C59.29 11.31, 59.29 22.62, 59.29 31.85 M59.29 0 C59.29 9.28, 59.29 18.56, 59.29 31.85 M59.29 31.85 C44.88 31.85, 30.46 31.85, 0 31.85 M59.29 31.85 C35.87 31.85, 12.44 31.85, 0 31.85 M0 31.85 C0 20.46, 0 9.06, 0 0 M0 31.85 C0 23.97, 0 16.09, 0 0" stroke="#1e1e1e" stroke-width="1" fill="none"></path></g><g transform="translate(53.947300895114495 279.7735917757218) rotate(0 18.04166603088379 9.600000000000364)"><text x="18.04166603088379" y="0" font-family="Cascadia, Segoe UI Emoji" font-size="16px" fill="#1e1e1e" text-anchor="middle" style="white-space: pre;" direction="ltr" dominant-baseline="text-before-edge">Città</text></g><g stroke-linecap="round"><g transform="translate(62.983693451824365 306.3699871281551) rotate(0 -12.280937312047172 21.271207389035226)"><path d="M0 0 C-6.13 10.62, -12.26 21.24, -24.56 42.54 M0 0 C-8.76 15.17, -17.52 30.34, -24.56 42.54" stroke="#1e1e1e" stroke-width="1" fill="none"></path></g></g><mask></mask><g stroke-linecap="round"><g transform="translate(78.1143589147332 305.29961094643113) rotate(0 18.988715165079157 18.988715165078247)"><path d="M0 0 C14.9 14.9, 29.79 29.79, 37.98 37.98 M0 0 C13.42 13.42, 26.85 26.85, 37.98 37.98" stroke="#1e1e1e" stroke-width="1" fill="none"></path></g></g><mask></mask><g transform="translate(10 352.3426214199171) rotate(0 28.391666412353516 9.600000000000364)"><text x="0" y="0" font-family="Cascadia, Segoe UI Emoji" font-size="16px" fill="#1e1e1e" text-anchor="start" style="white-space: pre;" direction="ltr" dominant-baseline="text-before-edge">regione</text></g><g transform="translate(91.83523696950033 348.91240190622557) rotate(0 46.05833435058594 9.600000000000364)"><text x="0" y="0" font-family="Cascadia, Segoe UI Emoji" font-size="16px" fill="#1e1e1e" text-anchor="start" style="white-space: pre;" direction="ltr" dominant-baseline="text-before-edge">popolazione</text></g><g transform="translate(43.81216377781675 200.4329000992875) rotate(0 28.133333206176758 9.600000000000364)"><text x="0" y="0" font-family="Cascadia, Segoe UI Emoji" font-size="16px" fill="#1e1e1e" text-anchor="start" style="white-space: pre;" direction="ltr" dominant-baseline="text-before-edge">ubicato</text></g><g stroke-linecap="round" transform="translate(34.211628746253155 173.97120670795084) rotate(0 38.712477368805594 35.77228921421283)"><path d="M39 0 C49.29 9.64, 59.58 19.28, 77.42 36 M39 0 C47.33 7.8, 55.66 15.61, 77.42 36 M77.42 36 C65.47 47.06, 53.52 58.12, 39 71.54 M77.42 36 C63 49.34, 48.58 62.68, 39 71.54 M39 71.54 C29.61 62.98, 20.21 54.42, 0 36 M39 71.54 C24.71 58.52, 10.41 45.49, 0 36 M0 36 C8.25 28.39, 16.49 20.77, 39 0 M0 36 C8.36 28.28, 16.73 20.56, 39 0" stroke="#1e1e1e" stroke-width="1" fill="none"></path></g><g stroke-linecap="round"><g transform="translate(82.72473329703462 122.02788264347873) rotate(0 -6.125391988734918 0)"><path d="M0 0 C-3.6 0, -7.19 0, -12.25 0 M0 0 C-2.51 0, -5.02 0, -12.25 0" stroke="#1e1e1e" stroke-width="1" fill="none"></path></g></g><mask></mask><g stroke-linecap="round"><g transform="translate(70.47394931956478 122.51791400257753) rotate(0 0 26.706709070884244)"><path d="M0 0 C0 17.15, 0 34.31, 0 53.41 M0 0 C0 14.46, 0 28.92, 0 53.41" stroke="#1e1e1e" stroke-width="1" fill="none"></path></g></g><mask></mask><g transform="translate(48.91256951921696 144.07929380292444) rotate(0 8.633333206176758 9.600000000000364)"><text x="0" y="0" font-family="Cascadia, Segoe UI Emoji" font-size="16px" fill="#1e1e1e" text-anchor="start" style="white-space: pre;" direction="ltr" dominant-baseline="text-before-edge">1,1</text></g><g stroke-linecap="round"><g transform="translate(71.94404339686116 244.53572241817892) rotate(0 0 13.845958080630226)"><path d="M0 0 C0 10.22, 0 20.43, 0 27.69 M0 0 C0 8.52, 0 17.04, 0 27.69" stroke="#1e1e1e" stroke-width="1" fill="none"></path></g></g><mask></mask><g transform="translate(77.82441970604668 246.0058164954753) rotate(0 10.300000190734863 9.600000000000364)"><text x="0" y="0" font-family="Cascadia, Segoe UI Emoji" font-size="16px" fill="#1e1e1e" text-anchor="start" style="white-space: pre;" direction="ltr" dominant-baseline="text-before-edge">1,n</text></g></svg>
