<svg xmlns="http://www.w3.org/2000/svg" version="1.1" viewBox="100 200 800 250"><ellipse cx="395.5" cy="304.5" fill="none" stroke="#909090" stroke-width="1" rx="30" ry="30"/><text x="387.5" y="310.5" stroke="#909090" font-family="Times New Roman" font-size="20">q₂</text><ellipse cx="395.5" cy="304.5" fill="none" stroke="#909090" stroke-width="1" rx="24" ry="24"/><ellipse cx="572.5" cy="304.5" fill="none" stroke="#909090" stroke-width="1" rx="30" ry="30"/><text x="564.5" y="310.5" stroke="#909090" font-family="Times New Roman" font-size="20">q₃</text><ellipse cx="237.5" cy="304.5" fill="none" stroke="#909090" stroke-width="1" rx="30" ry="30"/><text x="229.5" y="310.5" stroke="#909090" font-family="Times New Roman" font-size="20">q₁</text><path fill="none" stroke="#909090" stroke-width="1" d="M 416.582,283.285 A 110.919,110.919 0 0 1 551.418,283.285"/><polygon fill="#909090" stroke-width="1" points="551.418 283.285 548.104 274.452 542.026 282.393"/><text x="479.5" y="251.5" stroke="#909090" font-family="Times New Roman" font-size="20">0</text><path fill="none" stroke="#909090" stroke-width="1" d="M 556.145,329.508 A 97.131,97.131 0 0 1 411.855,329.508"/><polygon fill="#909090" stroke-width="1" points="411.855 329.508 413.497 338.798 420.925 332.102"/><text x="471.5" y="382.5" stroke="#909090" font-family="Times New Roman" font-size="20">0,1</text><path fill="none" stroke="#909090" stroke-width="1" d="M 224.275,277.703 A 22.5,22.5 0 1 1 250.725,277.703"/><text x="232.5" y="228.5" stroke="#909090" font-family="Times New Roman" font-size="20">0</text><polygon fill="#909090" stroke-width="1" points="250.725 277.703 259.473 274.17 251.382 268.292"/><path fill="none" stroke="#909090" stroke-width="1" d="M 258.253,283.003 A 96.547,96.547 0 0 1 374.747,283.003"/><polygon fill="#909090" stroke-width="1" points="374.747 283.003 371.384 274.189 365.351 282.164"/><text x="311.5" y="254.5" stroke="#909090" font-family="Times New Roman" font-size="20">1</text><polygon stroke="#909090" stroke-width="1" points="144.5 304.5 207.5 304.5"/><polygon fill="#909090" stroke-width="1" points="207.5 304.5 199.5 299.5 199.5 309.5"/></svg>