<svg xmlns="http://www.w3.org/2000/svg" version="1.1" viewBox="100 200 800 250"><ellipse cx="534.5" cy="304.5" fill="none" stroke="#909090" stroke-width="1" rx="30" ry="30"/><text x="526.5" y="310.5" stroke="#909090" font-family="Times New Roman" font-size="20">q₃</text><ellipse cx="237.5" cy="304.5" fill="none" stroke="#909090" stroke-width="1" rx="30" ry="30"/><text x="229.5" y="310.5" stroke="#909090" font-family="Times New Roman" font-size="20">q₁</text><ellipse cx="389.5" cy="304.5" fill="none" stroke="#909090" stroke-width="1" rx="30" ry="30"/><text x="381.5" y="310.5" stroke="#909090" font-family="Times New Roman" font-size="20">q₂</text><ellipse cx="668.5" cy="304.5" fill="none" stroke="#909090" stroke-width="1" rx="30" ry="30"/><text x="660.5" y="310.5" stroke="#909090" font-family="Times New Roman" font-size="20">q₄</text><ellipse cx="668.5" cy="304.5" fill="none" stroke="#909090" stroke-width="1" rx="24" ry="24"/><path fill="none" stroke="#909090" stroke-width="1" d="M 224.275,277.703 A 22.5,22.5 0 1 1 250.725,277.703"/><text x="225.5" y="228.5" stroke="#909090" font-family="Times New Roman" font-size="20">0,1</text><polygon fill="#909090" stroke-width="1" points="250.725 277.703 259.473 274.17 251.382 268.292"/><polygon stroke="#909090" stroke-width="1" points="144.5 304.5 207.5 304.5"/><polygon fill="#909090" stroke-width="1" points="207.5 304.5 199.5 299.5 199.5 309.5"/><path fill="none" stroke="#909090" stroke-width="1" d="M 655.275,277.703 A 22.5,22.5 0 1 1 681.725,277.703"/><text x="656.5" y="228.5" stroke="#909090" font-family="Times New Roman" font-size="20">0,1</text><polygon fill="#909090" stroke-width="1" points="681.725 277.703 690.473 274.17 682.382 268.292"/><polygon stroke="#909090" stroke-width="1" points="564.5 304.5 638.5 304.5"/><polygon fill="#909090" stroke-width="1" points="638.5 304.5 630.5 299.5 630.5 309.5"/><text x="596.5" y="325.5" stroke="#909090" font-family="Times New Roman" font-size="20">1</text><polygon stroke="#909090" stroke-width="1" points="419.5 304.5 504.5 304.5"/><polygon fill="#909090" stroke-width="1" points="504.5 304.5 496.5 299.5 496.5 309.5"/><text x="450.5" y="325.5" stroke="#909090" font-family="Times New Roman" font-size="20">0,ε</text><polygon stroke="#909090" stroke-width="1" points="267.5 304.5 359.5 304.5"/><polygon fill="#909090" stroke-width="1" points="359.5 304.5 351.5 299.5 351.5 309.5"/><text x="308.5" y="325.5" font-family="Times New Roman" font-size="20">1</text></svg>