<?xml version="1.0" standalone="no"?>
<!DOCTYPE svg PUBLIC "-//W3C//DTD SVG 1.1//EN" "https://www.w3.org/Graphics/SVG/1.1/DTD/svg11.dtd">

<svg viewBox="100 200 800 250" version="1.1" xmlns="http://www.w3.org/2000/svg">
	<ellipse stroke="#909090" stroke-width="1" fill="none" cx="534.5" cy="304.5" rx="30" ry="30"/>
	<text stroke="#909090" x="526.5" y="310.5" font-family="Times New Roman" font-size="20">q&#8323;</text>
	<ellipse stroke="#909090" stroke-width="1" fill="none" cx="237.5" cy="304.5" rx="30" ry="30"/>
	<text stroke="#909090" x="229.5" y="310.5" font-family="Times New Roman" font-size="20">q&#8321;</text>
	<ellipse stroke="#909090" stroke-width="1" fill="none" cx="389.5" cy="304.5" rx="30" ry="30"/>
	<text stroke="#909090" x="381.5" y="310.5" font-family="Times New Roman" font-size="20">q&#8322;</text>
	<ellipse stroke="#909090" stroke-width="1" fill="none" cx="668.5" cy="304.5" rx="30" ry="30"/>
	<text stroke="#909090" x="660.5" y="310.5" font-family="Times New Roman" font-size="20">q&#8324;</text>
	<ellipse stroke="#909090" stroke-width="1" fill="none" cx="668.5" cy="304.5" rx="24" ry="24"/>
	<path stroke="#909090" stroke-width="1" fill="none" d="M 224.275,277.703 A 22.5,22.5 0 1 1 250.725,277.703"/>
	<text stroke="#909090" x="225.5" y="228.5" font-family="Times New Roman" font-size="20">0,1</text>
	<polygon fill="#909090" stroke-width="1" points="250.725,277.703 259.473,274.17 251.382,268.292"/>
	<polygon stroke="#909090" stroke-width="1" points="144.5,304.5 207.5,304.5"/>
	<polygon fill="#909090" stroke-width="1" points="207.5,304.5 199.5,299.5 199.5,309.5"/>
	<path stroke="#909090" stroke-width="1" fill="none" d="M 655.275,277.703 A 22.5,22.5 0 1 1 681.725,277.703"/>
	<text stroke="#909090" x="656.5" y="228.5" font-family="Times New Roman" font-size="20">0,1</text>
	<polygon fill="#909090" stroke-width="1" points="681.725,277.703 690.473,274.17 682.382,268.292"/>
	<polygon stroke="#909090" stroke-width="1" points="564.5,304.5 638.5,304.5"/>
	<polygon fill="#909090" stroke-width="1" points="638.5,304.5 630.5,299.5 630.5,309.5"/>
	<text stroke="#909090" x="596.5" y="325.5" font-family="Times New Roman" font-size="20">1</text>
	<polygon stroke="#909090" stroke-width="1" points="419.5,304.5 504.5,304.5"/>
	<polygon fill="#909090" stroke-width="1" points="504.5,304.5 496.5,299.5 496.5,309.5"/>
	<text stroke="#909090" x="450.5" y="325.5" font-family="Times New Roman" font-size="20">0,&#949;</text>
	<polygon stroke="#909090" stroke-width="1" points="267.5,304.5 359.5,304.5"/>
	<polygon fill="#909090" stroke-width="1" points="359.5,304.5 351.5,299.5 351.5,309.5"/>
	<text x="308.5" y="325.5" font-family="Times New Roman" font-size="20">1</text>
</svg>
