<?xml version="1.0" standalone="no"?>
<!DOCTYPE svg PUBLIC "-//W3C//DTD SVG 1.1//EN" "https://www.w3.org/Graphics/SVG/1.1/DTD/svg11.dtd">

<svg width="800" height="600" version="1.1" xmlns="http://www.w3.org/2000/svg">
	<ellipse stroke="#909090" stroke-width="1" fill="none" cx="175.5" cy="296.5" rx="30" ry="30"/>
	<text stroke="#909090" x="167.5" y="302.5" font-family="Times New Roman" font-size="20">q&#8320;</text>
	<ellipse stroke="#909090" stroke-width="1" fill="none" cx="327.5" cy="296.5" rx="30" ry="30"/>
	<text stroke="#909090" x="319.5" y="302.5" font-family="Times New Roman" font-size="20">q&#8321;</text>
	<ellipse stroke="#909090" stroke-width="1" fill="none" cx="463.5" cy="296.5" rx="30" ry="30"/>
	<text stroke="#909090" x="455.5" y="302.5" font-family="Times New Roman" font-size="20">q&#8322;</text>
	<ellipse stroke="#909090" stroke-width="1" fill="none" cx="609.5" cy="296.5" rx="30" ry="30"/>
	<text stroke="#909090" x="601.5" y="302.5" font-family="Times New Roman" font-size="20">q&#8323;</text>
	<ellipse stroke="#909090" stroke-width="1" fill="none" cx="609.5" cy="296.5" rx="24" ry="24"/>
	<polygon stroke="#909090" stroke-width="1" points="80.5,296.5 145.5,296.5"/>
	<polygon fill="#909090" stroke-width="1" points="145.5,296.5 137.5,291.5 137.5,301.5"/>
	<polygon stroke="#909090" stroke-width="1" points="205.5,296.5 297.5,296.5"/>
	<polygon fill="#909090" stroke-width="1" points="297.5,296.5 289.5,291.5 289.5,301.5"/>
	<text stroke="#909090" x="222.5" y="317.5" font-family="Times New Roman" font-size="20">&#949;, &#949; &gt; $</text>
	<polygon stroke="#909090" stroke-width="1" points="493.5,296.5 579.5,296.5"/>
	<polygon fill="#909090" stroke-width="1" points="579.5,296.5 571.5,291.5 571.5,301.5"/>
	<text stroke="#909090" x="507.5" y="317.5" font-family="Times New Roman" font-size="20">&#949;, $ &gt; &#949;</text>
	<path stroke="#909090" stroke-width="1" fill="none" d="M 347.574,274.443 A 79.78,79.78 0 0 1 443.426,274.443"/>
	<polygon fill="#909090" stroke-width="1" points="443.426,274.443 440.034,265.64 434.027,273.635"/>
	<text stroke="#909090" x="363.5" y="249.5" font-family="Times New Roman" font-size="20">b, A &gt; &#949;</text>
	<path stroke="#909090" stroke-width="1" fill="none" d="M 446.302,320.832 A 74.25,74.25 0 0 1 344.698,320.832"/>
	<polygon fill="#909090" stroke-width="1" points="344.698,320.832 347.111,329.952 353.953,322.659"/>
	<text stroke="#909090" x="363.5" y="361.5" font-family="Times New Roman" font-size="20">b, A &gt; &#949;</text>
	<path stroke="#909090" stroke-width="1" fill="none" d="M 465.422,326.213 A 70.69,70.69 0 0 1 325.578,326.213"/>
	<polygon fill="#909090" stroke-width="1" points="325.578,326.213 321.809,334.862 331.701,333.391"/>
	<text stroke="#909090" x="356.5" y="407.5" font-family="Times New Roman" font-size="20">a, &#949; &gt; AA</text>
	<path stroke="#909090" stroke-width="1" fill="none" d="M 328.806,266.764 A 69.035,69.035 0 0 1 462.194,266.764"/>
	<polygon fill="#909090" stroke-width="1" points="462.194,266.764 464.958,257.744 455.297,260.327"/>
	<text stroke="#909090" x="356.5" y="206.5" font-family="Times New Roman" font-size="20">a, &#949; &gt; AA</text>
</svg>
