<svg xmlns="http://www.w3.org/2000/svg" width="800" height="600" version="1.1"><ellipse cx="175.5" cy="296.5" fill="none" stroke="#909090" stroke-width="1" rx="30" ry="30"/><text x="167.5" y="302.5" stroke="#909090" font-family="Times New Roman" font-size="20">q₀</text><ellipse cx="327.5" cy="296.5" fill="none" stroke="#909090" stroke-width="1" rx="30" ry="30"/><text x="319.5" y="302.5" stroke="#909090" font-family="Times New Roman" font-size="20">q₁</text><ellipse cx="463.5" cy="296.5" fill="none" stroke="#909090" stroke-width="1" rx="30" ry="30"/><text x="455.5" y="302.5" stroke="#909090" font-family="Times New Roman" font-size="20">q₂</text><ellipse cx="609.5" cy="296.5" fill="none" stroke="#909090" stroke-width="1" rx="30" ry="30"/><text x="601.5" y="302.5" stroke="#909090" font-family="Times New Roman" font-size="20">q₃</text><ellipse cx="609.5" cy="296.5" fill="none" stroke="#909090" stroke-width="1" rx="24" ry="24"/><polygon stroke="#909090" stroke-width="1" points="80.5 296.5 145.5 296.5"/><polygon fill="#909090" stroke-width="1" points="145.5 296.5 137.5 291.5 137.5 301.5"/><polygon stroke="#909090" stroke-width="1" points="205.5 296.5 297.5 296.5"/><polygon fill="#909090" stroke-width="1" points="297.5 296.5 289.5 291.5 289.5 301.5"/><text x="222.5" y="317.5" stroke="#909090" font-family="Times New Roman" font-size="20">ε, ε &gt; $</text><polygon stroke="#909090" stroke-width="1" points="493.5 296.5 579.5 296.5"/><polygon fill="#909090" stroke-width="1" points="579.5 296.5 571.5 291.5 571.5 301.5"/><text x="507.5" y="317.5" stroke="#909090" font-family="Times New Roman" font-size="20">ε, $ &gt; ε</text><path fill="none" stroke="#909090" stroke-width="1" d="M 347.574,274.443 A 79.78,79.78 0 0 1 443.426,274.443"/><polygon fill="#909090" stroke-width="1" points="443.426 274.443 440.034 265.64 434.027 273.635"/><text x="363.5" y="249.5" stroke="#909090" font-family="Times New Roman" font-size="20">b, A &gt; ε</text><path fill="none" stroke="#909090" stroke-width="1" d="M 446.302,320.832 A 74.25,74.25 0 0 1 344.698,320.832"/><polygon fill="#909090" stroke-width="1" points="344.698 320.832 347.111 329.952 353.953 322.659"/><text x="363.5" y="361.5" stroke="#909090" font-family="Times New Roman" font-size="20">b, A &gt; ε</text><path fill="none" stroke="#909090" stroke-width="1" d="M 465.422,326.213 A 70.69,70.69 0 0 1 325.578,326.213"/><polygon fill="#909090" stroke-width="1" points="325.578 326.213 321.809 334.862 331.701 333.391"/><text x="356.5" y="407.5" stroke="#909090" font-family="Times New Roman" font-size="20">a, ε &gt; AA</text><path fill="none" stroke="#909090" stroke-width="1" d="M 328.806,266.764 A 69.035,69.035 0 0 1 462.194,266.764"/><polygon fill="#909090" stroke-width="1" points="462.194 266.764 464.958 257.744 455.297 260.327"/><text x="356.5" y="206.5" stroke="#909090" font-family="Times New Roman" font-size="20">a, ε &gt; AA</text></svg>