<svg xmlns="http://www.w3.org/2000/svg" width="800" height="600" version="1.1"><ellipse cx="157.5" cy="188.5" fill="none" stroke="#909090" stroke-width="1" rx="30" ry="30"/><text x="149.5" y="194.5" stroke="#909090" font-family="Times New Roman" font-size="20">q₀</text><ellipse cx="318.5" cy="188.5" fill="none" stroke="#909090" stroke-width="1" rx="30" ry="30"/><text x="310.5" y="194.5" stroke="#909090" font-family="Times New Roman" font-size="20">q₁</text><ellipse cx="483.5" cy="188.5" fill="none" stroke="#909090" stroke-width="1" rx="30" ry="30"/><text x="475.5" y="194.5" stroke="#909090" font-family="Times New Roman" font-size="20">q₂</text><ellipse cx="640.5" cy="188.5" fill="none" stroke="#909090" stroke-width="1" rx="30" ry="30"/><text x="632.5" y="194.5" stroke="#909090" font-family="Times New Roman" font-size="20">q₃</text><ellipse cx="640.5" cy="344.5" fill="none" stroke="#909090" stroke-width="1" rx="30" ry="30"/><text x="632.5" y="350.5" stroke="#909090" font-family="Times New Roman" font-size="20">q₄</text><ellipse cx="483.5" cy="344.5" fill="none" stroke="#909090" stroke-width="1" rx="30" ry="30"/><text x="475.5" y="350.5" stroke="#909090" font-family="Times New Roman" font-size="20">q₅</text><ellipse cx="318.5" cy="344.5" fill="none" stroke="#909090" stroke-width="1" rx="30" ry="30"/><text x="310.5" y="350.5" stroke="#909090" font-family="Times New Roman" font-size="20">q₆</text><ellipse cx="157.5" cy="344.5" fill="none" stroke="#909090" stroke-width="1" rx="30" ry="30"/><text x="149.5" y="350.5" stroke="#909090" font-family="Times New Roman" font-size="20">q₇</text><ellipse cx="157.5" cy="344.5" fill="none" stroke="#909090" stroke-width="1" rx="24" ry="24"/><polygon stroke="#909090" stroke-width="1" points="187.5 188.5 288.5 188.5"/><polygon fill="#909090" stroke-width="1" points="288.5 188.5 280.5 183.5 280.5 193.5"/><text x="208.5" y="209.5" stroke="#909090" font-family="Times New Roman" font-size="20">ε, ε &gt; $</text><polygon stroke="#909090" stroke-width="1" points="348.5 188.5 453.5 188.5"/><polygon fill="#909090" stroke-width="1" points="453.5 188.5 445.5 183.5 445.5 193.5"/><text x="369.5" y="209.5" stroke="#909090" font-family="Times New Roman" font-size="20">a, ε &gt; A</text><polygon stroke="#909090" stroke-width="1" points="513.5 188.5 610.5 188.5"/><polygon fill="#909090" stroke-width="1" points="610.5 188.5 602.5 183.5 602.5 193.5"/><text x="524.5" y="209.5" stroke="#909090" font-family="Times New Roman" font-size="20">c, ε &gt; BB</text><path fill="none" stroke="#909090" stroke-width="1" d="M 470.275,161.703 A 22.5,22.5 0 1 1 496.725,161.703"/><text x="452.5" y="112.5" stroke="#909090" font-family="Times New Roman" font-size="20">a, ε &gt; A</text><polygon fill="#909090" stroke-width="1" points="496.725 161.703 505.473 158.17 497.382 152.292"/><path fill="none" stroke="#909090" stroke-width="1" d="M 627.275,161.703 A 22.5,22.5 0 1 1 653.725,161.703"/><text x="602.5" y="112.5" stroke="#909090" font-family="Times New Roman" font-size="20">c, ε &gt; BB</text><polygon fill="#909090" stroke-width="1" points="653.725 161.703 662.473 158.17 654.382 152.292"/><polygon stroke="#909090" stroke-width="1" points="640.5 218.5 640.5 314.5"/><polygon fill="#909090" stroke-width="1" points="640.5 314.5 645.5 306.5 635.5 306.5"/><text x="645.5" y="272.5" stroke="#909090" font-family="Times New Roman" font-size="20">d, B &gt; ε</text><path fill="none" stroke="#909090" stroke-width="1" d="M 509.167,329.101 A 128.512,128.512 0 0 1 614.833,329.101"/><polygon fill="#909090" stroke-width="1" points="509.167 329.101 518.515 330.37 514.404 321.254"/><text x="530.5" y="308.5" stroke="#909090" font-family="Times New Roman" font-size="20">d, B &gt; ε</text><polygon stroke="#909090" stroke-width="1" points="453.5 344.5 348.5 344.5"/><polygon fill="#909090" stroke-width="1" points="348.5 344.5 356.5 349.5 356.5 339.5"/><text x="371.5" y="335.5" stroke="#909090" font-family="Times New Roman" font-size="20">b, ε &gt; ε</text><polygon stroke="#909090" stroke-width="1" points="288.5 344.5 187.5 344.5"/><polygon fill="#909090" stroke-width="1" points="187.5 344.5 195.5 349.5 195.5 339.5"/><text x="208.5" y="335.5" stroke="#909090" font-family="Times New Roman" font-size="20">ε, $ &gt; ε</text><path fill="none" stroke="#909090" stroke-width="1" d="M 331.725,371.297 A 22.5,22.5 0 1 1 305.275,371.297"/><text x="286.5" y="433.5" stroke="#909090" font-family="Times New Roman" font-size="20">b, A &gt; ε</text><polygon fill="#909090" stroke-width="1" points="305.275 371.297 296.527 374.83 304.618 380.708"/><path fill="none" stroke="#909090" stroke-width="1" d="M 619.569,365.823 A 96.5,96.5 0 0 1 504.431,365.823"/><polygon fill="#909090" stroke-width="1" points="619.569 365.823 610.165 366.582 616.131 374.608"/><text x="530.5" y="405.5" font-family="Times New Roman" font-size="20">d, B &gt; ε</text></svg>